<?xml version="1.0" standalone="no"?>
<!DOCTYPE svg PUBLIC "-//W3C//DTD SVG 20010904//EN"
 "http://www.w3.org/TR/2001/REC-SVG-20010904/DTD/svg10.dtd">
<svg version="1.0" xmlns="http://www.w3.org/2000/svg"
 width="512.000000pt" height="512.000000pt" viewBox="0 0 512.000000 512.000000"
 preserveAspectRatio="xMidYMid meet">

<g transform="translate(0.000000,512.000000) scale(0.100000,-0.100000)"
fill="#000000" stroke="none">
<path d="M2222 4563 c-62 -30 -96 -114 -78 -190 9 -35 607 -639 653 -659 129
-56 262 71 213 203 -12 32 -601 627 -642 649 -36 19 -105 18 -146 -3z"/>
<path d="M3495 4314 c-44 -22 -60 -40 -80 -83 -17 -38 -16 -52 19 -463 40
-465 45 -490 108 -528 50 -30 93 -35 144 -15 49 18 90 65 100 111 7 36 -63
847 -77 890 -26 81 -139 127 -214 88z"/>
<path d="M1117 3955 c-72 -25 -107 -75 -107 -153 0 -34 7 -59 23 -82 44 -66
48 -67 483 -106 436 -39 494 -40 541 -6 90 64 79 217 -20 269 -23 11 -132 24
-412 49 -209 18 -400 35 -425 37 -25 3 -62 -1 -83 -8z"/>
<path d="M4290 3301 c-26 -13 -86 -91 -238 -307 -322 -458 -305 -429 -300
-495 5 -65 32 -109 82 -133 50 -23 116 -21 156 7 21 13 126 155 279 372 l245
350 4 60 c3 50 0 65 -20 94 -46 67 -137 90 -208 52z"/>
<path d="M1284 3208 c-11 -5 -173 -117 -360 -247 -210 -148 -348 -250 -361
-271 -47 -69 -23 -176 49 -220 37 -22 116 -27 151 -9 12 7 176 120 365 252
366 256 382 271 382 350 0 49 -39 117 -80 138 -38 21 -112 24 -146 7z"/>
<path d="M1267 2306 c-45 -16 -74 -40 -92 -77 -24 -45 -225 -811 -225 -855 0
-55 33 -103 92 -132 64 -32 116 -24 171 27 l39 37 109 404 c62 232 109 425
109 451 0 103 -107 179 -203 145z"/>
<path d="M3890 1921 c-217 -59 -407 -115 -422 -125 -15 -10 -37 -38 -49 -62
-50 -104 24 -224 140 -224 49 0 814 205 856 229 48 28 75 76 75 136 0 92 -67
156 -160 154 -25 -1 -223 -49 -440 -108z"/>
<path d="M1800 1578 c-60 -30 -92 -86 -87 -148 3 -32 55 -155 181 -425 98
-209 187 -390 198 -402 30 -32 101 -57 139 -49 82 16 148 100 136 173 -6 36
-343 769 -374 813 -18 26 -87 59 -123 60 -14 0 -46 -10 -70 -22z"/>
<path d="M2682 1383 c-88 -43 -110 -184 -39 -251 13 -12 197 -103 409 -202
334 -156 392 -180 435 -180 113 0 185 115 139 223 -24 57 2 43 -618 331 -223
103 -260 112 -326 79z"/>
</g>
</svg>
